<mxfile host="app.diagrams.net" modified="2022-07-07T05:14:40.069Z" agent="5.0 (Macintosh; Intel Mac OS X 10_15_7) AppleWebKit/537.36 (KHTML, like Gecko) Chrome/103.0.0.0 Safari/537.36" etag="1VWKF4Nn_1h7teBfI8vc" version="20.0.4" type="github">
  <diagram name="Page-1" id="c7558073-3199-34d8-9f00-42111426c3f3">
    <mxGraphModel dx="946" dy="614" grid="0" gridSize="10" guides="1" tooltips="1" connect="1" arrows="1" fold="1" page="1" pageScale="1" pageWidth="826" pageHeight="1169" background="none" math="0" shadow="0">
      <root>
        <mxCell id="0" />
        <mxCell id="1" parent="0" />
        <mxCell id="Amkg9Wyv81gW7sQ3Rf_2-111" value="并行策略" style="edgeStyle=orthogonalEdgeStyle;rounded=0;orthogonalLoop=1;jettySize=auto;html=1;entryX=0.5;entryY=0;entryDx=0;entryDy=0;exitX=0.5;exitY=1;exitDx=0;exitDy=0;" edge="1" parent="1" source="Amkg9Wyv81gW7sQ3Rf_2-97" target="Amkg9Wyv81gW7sQ3Rf_2-98">
          <mxGeometry relative="1" as="geometry" />
        </mxCell>
        <mxCell id="Amkg9Wyv81gW7sQ3Rf_2-113" style="edgeStyle=orthogonalEdgeStyle;rounded=0;orthogonalLoop=1;jettySize=auto;html=1;entryX=0.5;entryY=0;entryDx=0;entryDy=0;exitX=0.75;exitY=1;exitDx=0;exitDy=0;" edge="1" parent="1" source="Amkg9Wyv81gW7sQ3Rf_2-97" target="Amkg9Wyv81gW7sQ3Rf_2-99">
          <mxGeometry relative="1" as="geometry" />
        </mxCell>
        <mxCell id="Amkg9Wyv81gW7sQ3Rf_2-114" value="动转静" style="edgeLabel;html=1;align=center;verticalAlign=middle;resizable=0;points=[];" vertex="1" connectable="0" parent="Amkg9Wyv81gW7sQ3Rf_2-113">
          <mxGeometry x="-0.1455" y="1" relative="1" as="geometry">
            <mxPoint as="offset" />
          </mxGeometry>
        </mxCell>
        <mxCell id="Amkg9Wyv81gW7sQ3Rf_2-133" style="edgeStyle=orthogonalEdgeStyle;rounded=0;orthogonalLoop=1;jettySize=auto;html=1;exitX=0.25;exitY=1;exitDx=0;exitDy=0;entryX=0.25;entryY=0;entryDx=0;entryDy=0;" edge="1" parent="1" source="Amkg9Wyv81gW7sQ3Rf_2-97" target="Amkg9Wyv81gW7sQ3Rf_2-130">
          <mxGeometry relative="1" as="geometry">
            <Array as="points">
              <mxPoint x="260" y="250" />
              <mxPoint x="140" y="250" />
              <mxPoint x="140" y="340" />
              <mxPoint x="90" y="340" />
            </Array>
          </mxGeometry>
        </mxCell>
        <mxCell id="Amkg9Wyv81gW7sQ3Rf_2-134" value="单卡训练" style="edgeLabel;html=1;align=center;verticalAlign=middle;resizable=0;points=[];" vertex="1" connectable="0" parent="Amkg9Wyv81gW7sQ3Rf_2-133">
          <mxGeometry x="-0.237" y="-2" relative="1" as="geometry">
            <mxPoint as="offset" />
          </mxGeometry>
        </mxCell>
        <mxCell id="Amkg9Wyv81gW7sQ3Rf_2-97" value="动态图模型" style="rounded=1;whiteSpace=wrap;html=1;" vertex="1" parent="1">
          <mxGeometry x="238" y="190" width="80" height="40" as="geometry" />
        </mxCell>
        <mxCell id="Amkg9Wyv81gW7sQ3Rf_2-116" value="动转静" style="edgeStyle=orthogonalEdgeStyle;rounded=0;orthogonalLoop=1;jettySize=auto;html=1;" edge="1" parent="1" source="Amkg9Wyv81gW7sQ3Rf_2-98" target="Amkg9Wyv81gW7sQ3Rf_2-109">
          <mxGeometry relative="1" as="geometry" />
        </mxCell>
        <mxCell id="Amkg9Wyv81gW7sQ3Rf_2-166" value="？" style="edgeLabel;html=1;align=center;verticalAlign=middle;resizable=0;points=[];" vertex="1" connectable="0" parent="Amkg9Wyv81gW7sQ3Rf_2-116">
          <mxGeometry x="-0.7982" y="1" relative="1" as="geometry">
            <mxPoint as="offset" />
          </mxGeometry>
        </mxCell>
        <mxCell id="Amkg9Wyv81gW7sQ3Rf_2-132" style="edgeStyle=orthogonalEdgeStyle;rounded=0;orthogonalLoop=1;jettySize=auto;html=1;exitX=0.25;exitY=1;exitDx=0;exitDy=0;" edge="1" parent="1" source="Amkg9Wyv81gW7sQ3Rf_2-98" target="Amkg9Wyv81gW7sQ3Rf_2-130">
          <mxGeometry relative="1" as="geometry" />
        </mxCell>
        <mxCell id="Amkg9Wyv81gW7sQ3Rf_2-135" value="多卡训练" style="edgeLabel;html=1;align=center;verticalAlign=middle;resizable=0;points=[];" vertex="1" connectable="0" parent="Amkg9Wyv81gW7sQ3Rf_2-132">
          <mxGeometry x="0.1455" y="-1" relative="1" as="geometry">
            <mxPoint x="25" as="offset" />
          </mxGeometry>
        </mxCell>
        <mxCell id="Amkg9Wyv81gW7sQ3Rf_2-98" value="动态图多卡&lt;br&gt;模型" style="rounded=1;whiteSpace=wrap;html=1;" vertex="1" parent="1">
          <mxGeometry x="171" y="300" width="80" height="40" as="geometry" />
        </mxCell>
        <mxCell id="Amkg9Wyv81gW7sQ3Rf_2-117" style="edgeStyle=orthogonalEdgeStyle;rounded=0;orthogonalLoop=1;jettySize=auto;html=1;exitX=0.5;exitY=1;exitDx=0;exitDy=0;" edge="1" parent="1" source="Amkg9Wyv81gW7sQ3Rf_2-99" target="Amkg9Wyv81gW7sQ3Rf_2-109">
          <mxGeometry relative="1" as="geometry" />
        </mxCell>
        <mxCell id="Amkg9Wyv81gW7sQ3Rf_2-118" value="并行策略" style="edgeLabel;html=1;align=center;verticalAlign=middle;resizable=0;points=[];" vertex="1" connectable="0" parent="Amkg9Wyv81gW7sQ3Rf_2-117">
          <mxGeometry x="-0.0933" relative="1" as="geometry">
            <mxPoint as="offset" />
          </mxGeometry>
        </mxCell>
        <mxCell id="Amkg9Wyv81gW7sQ3Rf_2-124" style="edgeStyle=orthogonalEdgeStyle;rounded=0;orthogonalLoop=1;jettySize=auto;html=1;entryX=0.5;entryY=0;entryDx=0;entryDy=0;" edge="1" parent="1" source="Amkg9Wyv81gW7sQ3Rf_2-99" target="Amkg9Wyv81gW7sQ3Rf_2-105">
          <mxGeometry relative="1" as="geometry" />
        </mxCell>
        <mxCell id="Amkg9Wyv81gW7sQ3Rf_2-125" value="单卡训练" style="edgeLabel;html=1;align=center;verticalAlign=middle;resizable=0;points=[];" vertex="1" connectable="0" parent="Amkg9Wyv81gW7sQ3Rf_2-124">
          <mxGeometry x="0.2423" y="-1" relative="1" as="geometry">
            <mxPoint y="26" as="offset" />
          </mxGeometry>
        </mxCell>
        <mxCell id="Amkg9Wyv81gW7sQ3Rf_2-99" value="静态图模型" style="rounded=1;whiteSpace=wrap;html=1;" vertex="1" parent="1">
          <mxGeometry x="313" y="300" width="67" height="40" as="geometry" />
        </mxCell>
        <mxCell id="Amkg9Wyv81gW7sQ3Rf_2-101" value="单卡执行器&lt;br&gt;InterpreterCore" style="rounded=1;whiteSpace=wrap;html=1;fillColor=#f8cecc;strokeColor=#b85450;" vertex="1" parent="1">
          <mxGeometry x="200" y="520" width="80" height="40" as="geometry" />
        </mxCell>
        <mxCell id="Amkg9Wyv81gW7sQ3Rf_2-139" style="edgeStyle=orthogonalEdgeStyle;rounded=0;orthogonalLoop=1;jettySize=auto;html=1;" edge="1" parent="1" source="Amkg9Wyv81gW7sQ3Rf_2-103" target="Amkg9Wyv81gW7sQ3Rf_2-101">
          <mxGeometry relative="1" as="geometry" />
        </mxCell>
        <mxCell id="Amkg9Wyv81gW7sQ3Rf_2-140" style="edgeStyle=orthogonalEdgeStyle;rounded=0;orthogonalLoop=1;jettySize=auto;html=1;" edge="1" parent="1" source="Amkg9Wyv81gW7sQ3Rf_2-103" target="Amkg9Wyv81gW7sQ3Rf_2-127">
          <mxGeometry relative="1" as="geometry" />
        </mxCell>
        <mxCell id="Amkg9Wyv81gW7sQ3Rf_2-103" value="分布式执行器&lt;br&gt;interceptor" style="rounded=1;whiteSpace=wrap;html=1;" vertex="1" parent="1">
          <mxGeometry x="240" y="446" width="80" height="40" as="geometry" />
        </mxCell>
        <mxCell id="Amkg9Wyv81gW7sQ3Rf_2-105" value="单卡执行器&lt;br&gt;InterpreterCore" style="rounded=1;whiteSpace=wrap;html=1;fillColor=#f8cecc;strokeColor=#b85450;" vertex="1" parent="1">
          <mxGeometry x="395" y="520" width="80" height="40" as="geometry" />
        </mxCell>
        <mxCell id="Amkg9Wyv81gW7sQ3Rf_2-126" style="edgeStyle=orthogonalEdgeStyle;rounded=0;orthogonalLoop=1;jettySize=auto;html=1;exitX=0.5;exitY=1;exitDx=0;exitDy=0;entryX=0.5;entryY=0;entryDx=0;entryDy=0;" edge="1" parent="1" source="Amkg9Wyv81gW7sQ3Rf_2-109" target="Amkg9Wyv81gW7sQ3Rf_2-103">
          <mxGeometry relative="1" as="geometry" />
        </mxCell>
        <mxCell id="Amkg9Wyv81gW7sQ3Rf_2-109" value="静态图多卡&lt;br&gt;模型" style="rounded=1;whiteSpace=wrap;html=1;" vertex="1" parent="1">
          <mxGeometry x="240" y="380" width="80" height="40" as="geometry" />
        </mxCell>
        <mxCell id="Amkg9Wyv81gW7sQ3Rf_2-122" style="edgeStyle=orthogonalEdgeStyle;rounded=0;orthogonalLoop=1;jettySize=auto;html=1;exitX=0;exitY=0.5;exitDx=0;exitDy=0;entryX=0.75;entryY=0;entryDx=0;entryDy=0;" edge="1" parent="1" source="Amkg9Wyv81gW7sQ3Rf_2-120" target="Amkg9Wyv81gW7sQ3Rf_2-99">
          <mxGeometry relative="1" as="geometry" />
        </mxCell>
        <mxCell id="Amkg9Wyv81gW7sQ3Rf_2-120" value="静态图组网&lt;br&gt;（不推荐）" style="rounded=1;whiteSpace=wrap;html=1;" vertex="1" parent="1">
          <mxGeometry x="390" y="222" width="80" height="40" as="geometry" />
        </mxCell>
        <mxCell id="Amkg9Wyv81gW7sQ3Rf_2-127" value="单卡执行器&lt;br&gt;InterpreterCore" style="rounded=1;whiteSpace=wrap;html=1;fillColor=#f8cecc;strokeColor=#b85450;" vertex="1" parent="1">
          <mxGeometry x="290" y="520" width="80" height="40" as="geometry" />
        </mxCell>
        <mxCell id="Amkg9Wyv81gW7sQ3Rf_2-130" value="动态图执行&lt;br&gt;(性能问题？)" style="rounded=1;whiteSpace=wrap;html=1;" vertex="1" parent="1">
          <mxGeometry x="70" y="520" width="80" height="40" as="geometry" />
        </mxCell>
        <mxCell id="Amkg9Wyv81gW7sQ3Rf_2-151" style="edgeStyle=orthogonalEdgeStyle;rounded=0;orthogonalLoop=1;jettySize=auto;html=1;entryX=0.5;entryY=0;entryDx=0;entryDy=0;" edge="1" parent="1" source="Amkg9Wyv81gW7sQ3Rf_2-136" target="Amkg9Wyv81gW7sQ3Rf_2-152">
          <mxGeometry relative="1" as="geometry">
            <mxPoint x="170" y="714" as="targetPoint" />
          </mxGeometry>
        </mxCell>
        <mxCell id="Amkg9Wyv81gW7sQ3Rf_2-154" style="edgeStyle=orthogonalEdgeStyle;rounded=0;orthogonalLoop=1;jettySize=auto;html=1;exitX=0.5;exitY=1;exitDx=0;exitDy=0;entryX=0.5;entryY=0;entryDx=0;entryDy=0;" edge="1" parent="1" source="Amkg9Wyv81gW7sQ3Rf_2-136" target="Amkg9Wyv81gW7sQ3Rf_2-153">
          <mxGeometry relative="1" as="geometry" />
        </mxCell>
        <mxCell id="Amkg9Wyv81gW7sQ3Rf_2-155" value="？" style="edgeStyle=orthogonalEdgeStyle;rounded=0;orthogonalLoop=1;jettySize=auto;html=1;exitX=0.75;exitY=1;exitDx=0;exitDy=0;entryX=0.5;entryY=1;entryDx=0;entryDy=0;" edge="1" parent="1" source="Amkg9Wyv81gW7sQ3Rf_2-136" target="Amkg9Wyv81gW7sQ3Rf_2-105">
          <mxGeometry relative="1" as="geometry">
            <Array as="points">
              <mxPoint x="168" y="700" />
              <mxPoint x="435" y="700" />
            </Array>
          </mxGeometry>
        </mxCell>
        <mxCell id="Amkg9Wyv81gW7sQ3Rf_2-157" style="edgeStyle=orthogonalEdgeStyle;rounded=0;orthogonalLoop=1;jettySize=auto;html=1;exitX=0.5;exitY=1;exitDx=0;exitDy=0;entryX=0.5;entryY=0;entryDx=0;entryDy=0;" edge="1" parent="1" source="Amkg9Wyv81gW7sQ3Rf_2-136" target="Amkg9Wyv81gW7sQ3Rf_2-156">
          <mxGeometry relative="1" as="geometry" />
        </mxCell>
        <mxCell id="Amkg9Wyv81gW7sQ3Rf_2-164" style="edgeStyle=orthogonalEdgeStyle;rounded=0;orthogonalLoop=1;jettySize=auto;html=1;exitX=1;exitY=0.5;exitDx=0;exitDy=0;entryX=0;entryY=0.5;entryDx=0;entryDy=0;" edge="1" parent="1" source="Amkg9Wyv81gW7sQ3Rf_2-136" target="Amkg9Wyv81gW7sQ3Rf_2-145">
          <mxGeometry relative="1" as="geometry" />
        </mxCell>
        <mxCell id="Amkg9Wyv81gW7sQ3Rf_2-165" value="并行策略" style="edgeLabel;html=1;align=center;verticalAlign=middle;resizable=0;points=[];" vertex="1" connectable="0" parent="Amkg9Wyv81gW7sQ3Rf_2-164">
          <mxGeometry x="-0.0526" y="3" relative="1" as="geometry">
            <mxPoint as="offset" />
          </mxGeometry>
        </mxCell>
        <mxCell id="Amkg9Wyv81gW7sQ3Rf_2-136" value="静态图单卡&lt;br&gt;推理模型" style="rounded=1;whiteSpace=wrap;html=1;" vertex="1" parent="1">
          <mxGeometry x="88" y="649" width="106" height="40" as="geometry" />
        </mxCell>
        <mxCell id="Amkg9Wyv81gW7sQ3Rf_2-138" value="" style="endArrow=none;html=1;strokeWidth=2;rounded=0;fillColor=#f8cecc;strokeColor=#b85450;" edge="1" parent="1">
          <mxGeometry width="50" height="50" relative="1" as="geometry">
            <mxPoint x="196" y="580" as="sourcePoint" />
            <mxPoint x="196" y="170" as="targetPoint" />
          </mxGeometry>
        </mxCell>
        <mxCell id="Amkg9Wyv81gW7sQ3Rf_2-142" value="纯动态图" style="text;html=1;strokeColor=none;fillColor=none;align=center;verticalAlign=middle;whiteSpace=wrap;rounded=0;" vertex="1" parent="1">
          <mxGeometry x="86" y="210" width="60" height="30" as="geometry" />
        </mxCell>
        <mxCell id="Amkg9Wyv81gW7sQ3Rf_2-149" style="edgeStyle=orthogonalEdgeStyle;rounded=0;orthogonalLoop=1;jettySize=auto;html=1;entryX=1;entryY=0.5;entryDx=0;entryDy=0;exitX=1;exitY=0.5;exitDx=0;exitDy=0;" edge="1" parent="1" source="Amkg9Wyv81gW7sQ3Rf_2-145" target="Amkg9Wyv81gW7sQ3Rf_2-103">
          <mxGeometry relative="1" as="geometry">
            <Array as="points">
              <mxPoint x="390" y="669" />
              <mxPoint x="390" y="466" />
            </Array>
          </mxGeometry>
        </mxCell>
        <mxCell id="Amkg9Wyv81gW7sQ3Rf_2-145" value="静态图多卡&lt;br&gt;推理模型" style="rounded=1;whiteSpace=wrap;html=1;" vertex="1" parent="1">
          <mxGeometry x="270" y="649" width="100" height="40" as="geometry" />
        </mxCell>
        <mxCell id="Amkg9Wyv81gW7sQ3Rf_2-146" value="" style="endArrow=none;html=1;strokeWidth=2;rounded=0;fillColor=#d5e8d4;strokeColor=#82b366;" edge="1" parent="1">
          <mxGeometry width="50" height="50" relative="1" as="geometry">
            <mxPoint x="50" y="580" as="sourcePoint" />
            <mxPoint x="510" y="580" as="targetPoint" />
            <Array as="points">
              <mxPoint x="280" y="580" />
            </Array>
          </mxGeometry>
        </mxCell>
        <mxCell id="Amkg9Wyv81gW7sQ3Rf_2-152" value="lite 执行器" style="rounded=1;whiteSpace=wrap;html=1;" vertex="1" parent="1">
          <mxGeometry x="50" y="737" width="80" height="40" as="geometry" />
        </mxCell>
        <mxCell id="Amkg9Wyv81gW7sQ3Rf_2-153" value="linference &lt;br&gt;执行器" style="rounded=1;whiteSpace=wrap;html=1;" vertex="1" parent="1">
          <mxGeometry x="130" y="737" width="80" height="40" as="geometry" />
        </mxCell>
        <mxCell id="Amkg9Wyv81gW7sQ3Rf_2-156" value="others？" style="rounded=1;whiteSpace=wrap;html=1;" vertex="1" parent="1">
          <mxGeometry x="210" y="737" width="80" height="40" as="geometry" />
        </mxCell>
        <mxCell id="Amkg9Wyv81gW7sQ3Rf_2-160" style="edgeStyle=orthogonalEdgeStyle;rounded=0;orthogonalLoop=1;jettySize=auto;html=1;exitX=0.25;exitY=1;exitDx=0;exitDy=0;entryX=0.5;entryY=0;entryDx=0;entryDy=0;" edge="1" parent="1" source="Amkg9Wyv81gW7sQ3Rf_2-158" target="Amkg9Wyv81gW7sQ3Rf_2-136">
          <mxGeometry relative="1" as="geometry">
            <Array as="points">
              <mxPoint x="213" y="640" />
              <mxPoint x="170" y="640" />
            </Array>
          </mxGeometry>
        </mxCell>
        <mxCell id="Amkg9Wyv81gW7sQ3Rf_2-163" style="edgeStyle=orthogonalEdgeStyle;rounded=0;orthogonalLoop=1;jettySize=auto;html=1;exitX=0.5;exitY=1;exitDx=0;exitDy=0;entryX=0.5;entryY=0;entryDx=0;entryDy=0;" edge="1" parent="1" source="Amkg9Wyv81gW7sQ3Rf_2-158" target="Amkg9Wyv81gW7sQ3Rf_2-145">
          <mxGeometry relative="1" as="geometry">
            <Array as="points">
              <mxPoint x="235" y="640" />
              <mxPoint x="310" y="640" />
            </Array>
          </mxGeometry>
        </mxCell>
        <mxCell id="Amkg9Wyv81gW7sQ3Rf_2-158" value="save&amp;amp;load" style="rounded=1;whiteSpace=wrap;html=1;" vertex="1" parent="1">
          <mxGeometry x="190" y="600" width="90" height="30" as="geometry" />
        </mxCell>
        <mxCell id="Amkg9Wyv81gW7sQ3Rf_2-159" value="" style="endArrow=classic;html=1;rounded=0;entryX=0.5;entryY=0;entryDx=0;entryDy=0;" edge="1" parent="1" target="Amkg9Wyv81gW7sQ3Rf_2-158">
          <mxGeometry width="50" height="50" relative="1" as="geometry">
            <mxPoint x="235" y="580" as="sourcePoint" />
            <mxPoint x="380" y="620" as="targetPoint" />
          </mxGeometry>
        </mxCell>
      </root>
    </mxGraphModel>
  </diagram>
</mxfile>
